# xmcd CD database file
#
# Track frame offsets:
#	182
#	27249
#	38616
#	54015
#	67303
#	83136
#	97231
#	113766
#	127015
#	139376
#	151718
#	164101
#	176067
#	189915
#	202862
#	215985
#	232000
#	247500
#	286394
#	299699
#	311374
#	322428
#
# Disc length: 4484 seconds
#
# Revision: 0
# Processed by: cddbd v1.5.1PL0 Copyright (c) Steve Scherf et al.
# Submitted via: CDex 1.51
#
DISCID=4e118216
DTITLE=Henry "Red" Allen - Classics 1944-1947
DYEAR=1944
DGENRE=Jazz
TTITLE0=The Theme
TTITLE1=Ride! Red! Ride!
TTITLE2=Just A Feeling
TTITLE3=Dark Eyes
TTITLE4=Dear Old Southland
TTITLE5=Red Jump
TTITLE6=Get The Mop
TTITLE7=The Crawl
TTITLE8=Buzz Me
TTITLE9=Drink Hearty
TTITLE10=Get The Mop
TTITLE11=Count Me Out
TTITLE12=Check Up
TTITLE13=If It's Love You Want
TTITLE14=Let Me Miss You
TTITLE15=Dark Eyes
TTITLE16=Sweet Lorraine
TTITLE17=Indiana
TTITLE18=Mr. Wamp Walks
TTITLE19=Old Fool, Do You Know Me?
TTITLE20=Bill's Downbeat
TTITLE21=A Shanty In Old Shanty Town
EXTD=YEAR: 1944
EXTT0=
EXTT1=
EXTT2=
EXTT3=
EXTT4=
EXTT5=
EXTT6=
EXTT7=
EXTT8=
EXTT9=
EXTT10=
EXTT11=
EXTT12=
EXTT13=
EXTT14=
EXTT15=
EXTT16=
EXTT17=
EXTT18=
EXTT19=
EXTT20=
EXTT21=
PLAYORDER=
